<?xml version="1.0" encoding="UTF-8"?>
<svg width="512" height="512" viewBox="0 0 512 512" fill="none" xmlns="http://www.w3.org/2000/svg">
    <rect width="512" height="512" rx="128" fill="#2563EB" />
    <path
        d="M144 128H368C376.837 128 384 135.163 384 144V144C384 152.837 376.837 160 368 160H144C135.163 160 128 152.837 128 144V144C128 135.163 135.163 128 144 128Z"
        fill="white" />
    <path
        d="M144 224H368C376.837 224 384 231.163 384 240V240C384 248.837 376.837 256 368 256H144C135.163 256 128 248.837 128 240V240C128 231.163 135.163 224 144 224Z"
        fill="white" />
    <path
        d="M144 320H368C376.837 320 384 327.163 384 336V336C384 344.837 376.837 352 368 352H144C135.163 352 128 344.837 128 336V336C128 327.163 135.163 320 144 320Z"
        fill="white" />
</svg>